<svg xmlns="http://www.w3.org/2000/svg" xmlns:xlink="http://www.w3.org/1999/xlink" width="22px" height="17px" viewBox="0 0 22 17" version="1.1">
    <g id="Page-1" stroke="none" stroke-width="1" fill="none" fill-rule="evenodd">
        <path d="M0,1.5 C0,0.671572875 0.67042869,0 1.49485322,0 L20.5051468,0 C21.3307314,0 22,0.665797234 22,1.5 C22,2.32842712 21.3295713,3 20.5051468,3 L1.49485322,3 C0.669268585,3 0,2.33420277 0,1.5 Z M0,8.5 C0,7.67157288 0.67042869,7 1.49485322,7 L20.5051468,7 C21.3307314,7 22,7.66579723 22,8.5 C22,9.32842712 21.3295713,10 20.5051468,10 L1.49485322,10 C0.669268585,10 0,9.33420277 0,8.5 Z M0,15.5 C0,14.6715729 0.67042869,14 1.49485322,14 L20.5051468,14 C21.3307314,14 22,14.6657972 22,15.5 C22,16.3284271 21.3295713,17 20.5051468,17 L1.49485322,17 C0.669268585,17 0,16.3342028 0,15.5 Z" id="menu-mobile" fill="#162745"/>
    </g>
</svg>
